<?xml version="1.0" encoding="UTF-8" standalone="no"?>
<!DOCTYPE svg PUBLIC "-//W3C//DTD SVG 1.1//EN" "http://www.w3.org/Graphics/SVG/1.1/DTD/svg11.dtd">
<svg width="100%" height="100%" viewBox="0 0 24 24" version="1.1" xmlns="http://www.w3.org/2000/svg" xmlns:xlink="http://www.w3.org/1999/xlink" xml:space="preserve" xmlns:serif="http://www.serif.com/" style="fill-rule:evenodd;clip-rule:evenodd;stroke-linejoin:round;stroke-miterlimit:2;">
    <g transform="matrix(1.02828,0,0,1.02828,0.152445,-0.831256)">
        <path d="M12.368,3.767C11.805,3.712 11.238,3.712 10.675,3.767L10.396,5.124C9.857,5.207 9.328,5.349 8.819,5.547L7.899,4.511C7.384,4.745 6.893,5.028 6.433,5.357L6.87,6.672C6.444,7.014 6.057,7.401 5.716,7.827L4.401,7.39C4.072,7.85 3.788,8.341 3.554,8.856L4.59,9.776C4.392,10.284 4.25,10.813 4.168,11.353L2.81,11.632C2.756,12.195 2.756,12.762 2.81,13.325L4.168,13.604C4.25,14.143 4.392,14.672 4.59,15.181L3.554,16.101C3.788,16.616 4.072,17.107 4.401,17.567L5.716,17.13C6.057,17.556 6.444,17.943 6.87,18.284L6.433,19.599C6.893,19.928 7.384,20.212 7.899,20.446L8.819,19.41C9.328,19.608 9.857,19.75 10.396,19.832L10.675,21.19C11.238,21.244 11.805,21.244 12.368,21.19L12.647,19.832C13.187,19.75 13.716,19.608 14.224,19.41L15.144,20.446C15.659,20.212 16.15,19.928 16.61,19.599L16.173,18.284C16.599,17.943 16.986,17.556 17.328,17.13L18.643,17.567C18.972,17.107 19.255,16.616 19.489,16.101L18.453,15.181C18.651,14.672 18.793,14.143 18.876,13.604L20.233,13.325C20.288,12.762 20.288,12.195 20.233,11.632L18.876,11.353C18.793,10.813 18.651,10.284 18.453,9.776L19.489,8.856C19.255,8.341 18.972,7.85 18.643,7.39L17.328,7.827C16.986,7.401 16.599,7.014 16.173,6.672L16.61,5.357C16.15,5.028 15.659,4.745 15.144,4.511L14.224,5.547C13.716,5.349 13.187,5.207 12.647,5.124L12.368,3.767ZM11.522,10.29C12.729,10.29 13.71,11.271 13.71,12.478C13.71,13.686 12.729,14.666 11.522,14.666C10.314,14.666 9.334,13.686 9.334,12.478C9.334,11.271 10.314,10.29 11.522,10.29Z" style="fill:white;"/>
    </g>
</svg>
